PathFileType	4	(X/Y/Z)	s11c0301.trc
DataRate	CameraRate	NumFrames	NumMarkers	Units	OrigDataRate	OrigDataStartFrame	OrigNumFrames
200	200	4	48	mm	200	1500	2000
Frame#	Time	racr			lacr			c7			jug			rlel			rdr			llel			ldr			s2			lic			ric			lasi			rasi			rpsi			lpsi			rgt			lgt			rth1			rth2			rth3			rth4			rlfc			rmfc			rsh1			rsh2			rsh3			rsh4			rlmal			rcal			rtoe			rmt5			lth1			lth2			lth4			lth3			llfc			lmfc			llmal			lcal			lmt5			lsh1			lsh2			lsh3			lsh4			ltoe			SBIKE			LBIKE			RBIKE			
		X1	Y1	Z1	X2	Y2	Z2	X3	Y3	Z3	X4	Y4	Z4	X5	Y5	Z5	X6	Y6	Z6	X7	Y7	Z7	X8	Y8	Z8	X9	Y9	Z9	X10	Y10	Z10	X11	Y11	Z11	X12	Y12	Z12	X13	Y13	Z13	X14	Y14	Z14	X15	Y15	Z15	X16	Y16	Z16	X17	Y17	Z17	X18	Y18	Z18	X19	Y19	Z19	X20	Y20	Z20	X21	Y21	Z21	X22	Y22	Z22	X23	Y23	Z23	X24	Y24	Z24	X25	Y25	Z25	X26	Y26	Z26	X27	Y27	Z27	X28	Y28	Z28	X29	Y29	Z29	X30	Y30	Z30	X31	Y31	Z31	X32	Y32	Z32	X33	Y33	Z33	X34	Y34	Z34	X35	Y35	Z35	X36	Y36	Z36	X37	Y37	Z37	X38	Y38	Z38	X39	Y39	Z39	X40	Y40	Z40	X41	Y41	Z41	X42	Y42	Z42	X43	Y43	Z43	X44	Y44	Z44	X45	Y45	Z45	X46	Y46	Z46	X47	Y47	Z47	X48	Y48	Z48	
1500	7.5000	833.167932	1334.304439	-59.917287	857.561817	1295.675070	-392.991990	834.807748	1406.221355	-238.056125	776.350782	1227.213517	-219.932033	671.280211	1124.182046	74.065800	793.015365	930.055906	-61.846218	653.548584	1149.081985	-605.228454	794.413143	924.212513	-482.625607	212.193366	1302.436752	-276.530014	438.361781	1231.692957	-452.724154	418.883663	1295.706034	-63.448216	447.188712	1165.796420	-408.159024	430.518208	1227.108585	-104.577816	270.834366	1370.946740	-235.815476	270.910316	1349.599845	-326.629841	362.669206	1178.226507	-32.584856	292.024294	1132.866917	-452.555105	473.034679	1088.301347	-23.100349	553.617578	1050.508184	-32.368557	604.522596	978.606940	-38.522854	574.370140	1077.141474	-47.275584	679.992316	899.663333	-51.881094	686.275089	878.180486	-172.760682	563.273076	792.342545	-46.953874	510.674426	726.802585	-69.221943	429.735936	692.774764	-75.772818	529.246881	708.735225	-98.724738	313.657296	622.890491	-93.703248	269.006647	669.259819	-142.323559	382.281910	405.099771	-154.545113	326.229756	449.797812	-83.006757	307.031428	1003.414217	-464.715183	328.240361	921.508247	-454.691604	364.565115	920.772962	-448.219493	303.881824	835.261369	-445.207885	295.522976	693.070946	-422.267463	305.608289	680.889610	-290.924655	147.860236	287.176471	-418.501102	86.451695	279.646561	-385.042357	242.924326	142.286724	-455.023216	239.842530	578.577138	-446.495955	238.129295	493.111696	-437.368866	193.503521	417.090177	-434.650303	270.631464	485.688157	-417.753217	340.788716	122.528954	-387.984453	-215.111953	956.684134	-257.099389	-17.794035	80.768916	-460.978672	-17.751081	81.056603	-62.142814	
1501	7.5050	831.657566	1333.690543	-55.593691	859.130233	1297.555085	-388.930572	834.612428	1406.529762	-234.447742	776.872032	1227.209618	-217.368346	669.514169	1123.210796	75.247452	792.880264	930.247204	-61.775983	658.358761	1150.696932	-603.876147	795.207660	924.123879	-482.279294	210.821231	1303.516080	-278.730473	441.081860	1232.024221	-452.500660	415.647104	1296.189930	-62.813564	449.163226	1166.000782	-407.189760	428.787572	1228.557195	-104.311097	269.764292	1371.446140	-238.340977	271.487228	1350.570277	-329.198864	361.834064	1180.560649	-32.940931	293.903025	1133.508578	-453.603408	472.853472	1089.911384	-23.485498	554.051415	1053.112080	-32.664004	605.679838	981.947889	-38.504461	574.645052	1080.281189	-46.592215	683.484605	905.871024	-52.216857	689.373064	885.548810	-176.609499	570.005823	796.350662	-47.403265	517.480395	729.597068	-70.539185	438.184724	694.536420	-76.239028	537.353075	712.493880	-99.326789	321.343168	621.873006	-94.193467	275.583554	667.234683	-142.869609	394.113643	405.391588	-154.684425	337.727068	449.303554	-82.747536	307.948683	1005.118701	-465.409513	328.395516	922.990565	-455.518435	364.645831	921.866631	-448.940233	303.141955	836.940768	-446.351090	292.680045	694.712774	-424.351695	304.756583	681.152676	-292.919410	140.251585	290.575118	-419.209142	78.749814	284.050749	-385.471207	232.821359	143.837641	-454.965421	235.985531	580.705408	-448.083358	233.223290	495.170162	-438.784385	187.598784	419.754472	-435.759475	265.788727	487.356429	-419.491909	330.312699	122.593754	-387.817254	-215.100765	956.729925	-257.045502	-17.780908	80.784881	-460.977507	-17.746868	81.097665	-62.146939	
1502	7.5100	830.083547	1332.821697	-51.853740	860.527218	1299.013619	-384.928085	834.178264	1406.674078	-230.913252	777.368136	1226.965323	-215.081613	667.746683	1122.380763	76.257713	792.716738	930.467211	-61.682871	662.486362	1152.355481	-602.185086	795.902929	923.927500	-481.804652	210.703650	1304.425717	-281.965932	443.667595	1232.321968	-452.462649	412.650985	1297.218826	-62.457104	450.928640	1165.935994	-406.782029	427.379025	1230.146438	-103.909252	268.667782	1372.415369	-240.572608	272.054614	1351.745909	-331.668180	361.012229	1182.675995	-33.542565	295.889180	1134.546217	-454.723435	472.598463	1091.657909	-23.633966	554.083178	1055.815848	-32.555313	606.723011	985.189119	-38.831898	574.670392	1082.914042	-46.082049	686.521188	911.765978	-52.800318	691.983834	892.419974	-180.233012	576.469426	799.945295	-47.861181	525.138713	732.262865	-71.031279	446.511482	695.805907	-76.716792	545.179196	715.381298	-99.818369	328.579895	620.077197	-94.718122	281.604331	664.446576	-143.441123	405.775121	405.202460	-154.762017	348.406182	448.097096	-82.907369	309.227888	1007.199428	-466.430370	328.976720	924.725534	-456.421105	365.198603	923.365198	-449.680035	303.217290	838.664892	-447.863948	291.387111	696.545145	-426.571018	304.994764	681.612612	-295.038921	132.862197	294.498523	-420.023060	71.339082	289.076210	-385.867958	222.807089	145.956831	-454.968755	233.531451	583.004730	-449.745187	229.310043	497.619631	-440.246275	182.413770	422.913498	-436.874448	261.904051	489.252389	-421.206783	319.847791	123.301413	-387.712684	-215.089509	956.767891	-257.028395	-17.768344	80.821540	-460.989925	-17.743210	81.105990	-62.161130	
1503	7.5150	828.574429	1331.791613	-48.541851	861.890502	1300.120627	-380.948773	834.133302	1406.494391	-227.553105	777.562547	1226.630199	-212.930336	666.188261	1121.540600	77.168882	792.465357	930.739877	-61.577053	666.146277	1154.136751	-600.283463	797.181307	923.745075	-481.486203	211.821861	1305.314822	-286.205978	446.026038	1232.840609	-452.272688	409.990141	1298.480682	-62.153632	452.494030	1165.723978	-406.610200	426.272735	1232.112169	-102.969036	268.149975	1373.774819	-242.781051	272.554327	1353.225433	-334.054787	360.290133	1184.555406	-34.236783	297.806830	1136.044354	-455.896328	472.141093	1093.077840	-24.330136	554.021650	1058.128159	-32.407345	607.481135	988.132999	-38.872887	574.568995	1085.607780	-45.646329	688.749868	917.076624	-53.222372	694.115926	898.651883	-183.433570	582.582653	803.159789	-48.056355	532.357813	734.531379	-71.425144	454.196103	696.641233	-77.066542	552.461107	718.671799	-100.923341	335.299717	617.621380	-95.235494	286.870345	660.885045	-143.992043	417.376160	404.618991	-154.862872	359.063115	446.195358	-83.099958	310.685114	1009.030510	-467.137966	330.193253	926.620766	-457.311513	366.367575	925.145652	-450.479277	304.231895	840.595266	-449.539850	291.672389	698.261450	-428.884187	306.222513	682.285895	-297.150262	125.758335	298.914426	-420.860708	64.157977	294.891060	-386.250638	212.885909	148.742117	-454.850190	232.525883	585.492597	-451.471495	226.509937	500.187081	-441.708614	178.029753	426.613798	-438.060267	259.002481	491.384744	-422.936667	309.548935	124.484608	-387.486449	-215.124357	956.800555	-257.009040	-17.791905	80.841379	-460.993291	-17.739765	81.143712	-62.170881	
